<svg version="1.2" xmlns="http://www.w3.org/2000/svg" viewBox="0 0 512 512" width="512" height="512">
	<style>
		.s0 { fill: #ffffff } 
	</style>
	<g id=".">
		<path id="Path 1" class="s0" d="m224.5 133.05c-3.3 0.52-9.38 2.07-13.5 3.44-4.13 1.37-10.37 4.19-13.87 6.25-3.61 2.13-9.47 7.05-13.5 11.34-4.33 4.61-8.7 10.6-11.13 15.24-2.65 5.08-4.59 7.66-5.75 7.67-1.61 0.01-1.75-1.58-1.75-19.49v-19.5h-75v242h77c0-125.26 0.35-149.61 1.13-153.25 0.62-2.89 2.2-7.61 3.5-10.5 1.3-2.89 4.33-7.39 6.74-10 2.7-2.94 6.8-5.89 10.75-7.75 5.82-2.73 7.31-2.99 16.9-3 10.04 0 10.85 0.16 17.5 3.5 4.58 2.29 8.03 4.88 10.03 7.5 1.68 2.2 4.04 6.59 5.25 9.75 1.21 3.16 2.65 9.69 3.19 14.5 0.56 4.96 1 39.16 1 79l0.01 70.25h77c-0.05-123.61-0.47-164-0.97-169.5-0.5-5.5-1.65-13.6-2.55-18-0.91-4.4-3.03-11.38-4.71-15.5-1.69-4.13-4.97-10.43-7.29-14-2.33-3.58-7.1-9.12-10.6-12.32-3.74-3.42-9.69-7.46-14.38-9.76-4.4-2.16-11.6-4.86-16-6q-8-2.07-20.5-2.44c-6.87-0.2-15.2 0.05-18.5 0.57zm122.5 208.95v38h76v-76h-76z"/>
	</g>
</svg>